<svg width="24" height="24" viewBox="0 0 24 24" fill="none" xmlns="http://www.w3.org/2000/svg">
<path d="M12.0017 6.00002V12L16.0017 14M20.0017 12V17M20.0017 21H20.0117M21.2517 8.20002C20.4974 6.3614 19.2123 4.78922 17.5606 3.68415C15.9088 2.57908 13.9652 1.99123 11.9779 1.99563C9.99052 2.00003 8.04955 2.59648 6.40269 3.70886C4.75583 4.82124 3.47776 6.39909 2.7316 8.24104C1.98544 10.083 1.80503 12.1055 2.2134 14.0504C2.62176 15.9954 3.60038 17.7745 5.02436 19.1608C6.44834 20.5471 8.25309 21.4777 10.2083 21.8338C12.1635 22.1899 14.1804 21.9553 16.0017 21.16" stroke="#F6AE2D" stroke-width="1.5" stroke-linecap="round" stroke-linejoin="round"/>
</svg>
