<svg width="24" height="24" viewBox="0 0 24 24" fill="none" xmlns="http://www.w3.org/2000/svg">
<path d="M21.9988 9.99999V16M5.99882 12.5V16C5.99882 16.7956 6.63096 17.5587 7.75618 18.1213C8.8814 18.6839 10.4075 19 11.9988 19C13.5901 19 15.1162 18.6839 16.2415 18.1213C17.3667 17.5587 17.9988 16.7956 17.9988 16V12.5M21.4188 10.922C21.5978 10.843 21.7498 10.7133 21.8558 10.5488C21.9617 10.3843 22.0172 10.1924 22.0151 9.99673C22.0131 9.80108 21.9537 9.61031 21.8444 9.44807C21.735 9.28584 21.5804 9.15925 21.3998 9.08399L12.8288 5.17999C12.5683 5.06114 12.2852 4.99963 11.9988 4.99963C11.7124 4.99963 11.4294 5.06114 11.1688 5.17999L2.59882 9.07999C2.42079 9.15796 2.26934 9.28613 2.16299 9.44881C2.05664 9.61149 2 9.80163 2 9.99599C2 10.1903 2.05664 10.3805 2.16299 10.5432C2.26934 10.7059 2.42079 10.834 2.59882 10.912L11.1688 14.82C11.4294 14.9388 11.7124 15.0003 11.9988 15.0003C12.2852 15.0003 12.5683 14.9388 12.8288 14.82L21.4188 10.922Z" stroke="#F6AE2D" stroke-width="1.5" stroke-linecap="round" stroke-linejoin="round"/>
</svg>
