<svg width="24" height="24" viewBox="0 0 24 24" fill="none" xmlns="http://www.w3.org/2000/svg">
<path d="M10.0007 11H10.0107M14.0007 6H14.0107M18.0007 6H18.0107M6.50068 13.1H6.51068M17.4007 9.9C16.6007 10.7 15.4007 10.7 14.6007 9.9M10.1007 7.1C9.00068 7.2 7.70068 7.7 6.00068 8.6C2.50068 10.6 1.30068 12.5 2.30068 14.2C6.80068 22 11.8007 22.6 13.5007 21.6C14.4007 21.1 15.4007 19.5 15.4007 16.9M9.10068 16.5C9.40068 15.4 10.5007 14.8 11.5007 15.1M22.0007 5C22.0007 14 18.0007 17 16.0007 17C14.0007 17 10.0007 14 10.0007 5C10.0007 3 12.0007 2 16.0007 2C20.0007 2 22.0007 3 22.0007 5Z" stroke="#F6AE2D" stroke-width="1.5" stroke-linecap="round" stroke-linejoin="round"/>
</svg>
