<svg width="24" height="24" viewBox="0 0 24 24" fill="none" xmlns="http://www.w3.org/2000/svg">
<path d="M12 17V21M8 21H16M9 17L15.1 10.9C15.4756 10.5319 15.9811 10.3265 16.5071 10.3284C17.033 10.3302 17.537 10.5392 17.91 10.91L22 15M22 15V5C22 3.89543 21.1046 3 20 3H4C2.89543 3 2 3.89543 2 5V15C2 16.1046 2.89543 17 4 17H20C21.1046 17 22 16.1046 22 15ZM10 9C10 10.1046 9.10457 11 8 11C6.89543 11 6 10.1046 6 9C6 7.89543 6.89543 7 8 7C9.10457 7 10 7.89543 10 9Z" stroke="#F6AE2D" stroke-width="1.5" stroke-linecap="round" stroke-linejoin="round"/>
</svg>
