<svg width="1052" height="96" viewBox="0 0 1052 96" fill="none" xmlns="http://www.w3.org/2000/svg">
<g clip-path="url(#clip0_186_459)">
<path d="M16.2936 71.4534L73.3183 1.72736H90.9681L58.4598 41.1029L92.3265 94.2715H73.6879L47.9427 53.8423L14.5655 94.2715H0V1.72736H16.2936V71.4534Z" fill="white"/>
<path d="M145.279 96C134.746 96 125.489 93.984 117.507 89.9531C109.525 85.9222 103.313 80.3082 98.8691 73.1099C94.4255 65.912 92.2031 57.5422 92.2031 47.9994C92.2031 38.4578 94.4255 30.0872 98.8691 22.8889C103.313 15.6909 109.525 10.0769 117.507 6.046C125.489 2.01601 134.746 0 145.279 0C155.811 0 165.069 2.01601 173.05 6.046C181.032 10.0769 187.245 15.6909 191.689 22.8889C196.132 30.0872 198.353 38.4578 198.353 47.9994C198.353 57.5422 196.132 65.912 191.689 73.1099C187.245 80.3082 181.032 85.9222 173.05 89.9531C165.069 93.984 155.811 96 145.279 96ZM145.279 81.4391C152.767 81.4391 159.226 80.0821 164.657 77.3672C170.088 74.6524 174.305 70.7862 177.31 65.7677C180.312 60.7502 181.815 54.8273 181.815 47.9994C181.815 41.1718 180.312 35.2498 177.31 30.2313C174.305 25.2129 170.088 21.3467 164.657 18.6328C159.226 15.917 152.767 14.56 145.279 14.56C137.873 14.56 131.434 15.917 125.961 18.6328C120.49 21.3467 116.252 25.2129 113.248 30.2313C110.245 35.2498 108.743 41.1718 108.743 47.9994C108.743 54.8273 110.245 60.7502 113.248 65.7677C116.252 70.7862 120.49 74.6524 125.961 77.3672C131.434 80.0821 137.873 81.4391 145.279 81.4391Z" fill="white"/>
<path d="M453.696 80.205H516.312V94.2715H435.589L442.995 47.9995L435.589 1.72736H515.695V15.7942H453.696L458.794 47.9995L453.696 80.205Z" fill="white"/>
<path d="M682.201 16.0408V94.2715H665.909V16.0408H627.646V1.72736H720.465V16.0408H682.201Z" fill="white"/>
<path d="M748.608 78.4145L807.608 1.72736H828.838V94.2715H813.039V16.8525L753.546 94.2715H732.809V1.72736H748.608V78.4145Z" fill="white"/>
<path d="M865.869 71.4534L922.893 1.72736H940.543L908.035 41.1029L941.902 94.2715H923.263L897.518 53.8423L864.14 94.2715H849.575V1.72736H865.869V71.4534Z" fill="white"/>
<path d="M997.384 14.6335L976.372 59.5989H1018.4L997.384 14.6335ZM970.086 73.0486L960.17 94.2715H942.765L987.2 1.72736H1007.57L1052 94.2715H1034.6L1024.68 73.0486H970.086Z" fill="white"/>
<path fill-rule="evenodd" clip-rule="evenodd" d="M279.652 40.473H230.445V1.72736H214.152V40.473H157.385C154.868 36.4343 150.386 33.7459 145.277 33.7459C137.403 33.7459 131.019 40.128 131.019 47.9995C131.019 55.8709 137.403 62.2533 145.277 62.2533C150.693 62.2533 155.405 59.2337 157.818 54.7861H214.152V94.2715H230.445V54.7861H279.652H289.445V94.2715H305.737V1.72736H289.445V40.473H279.652ZM145.277 55.4239C141.175 55.4239 137.85 52.0996 137.85 47.9995C137.85 43.8996 141.175 40.5762 145.277 40.5762C149.378 40.5762 152.703 43.8996 152.703 47.9995C152.703 52.0996 149.378 55.4239 145.277 55.4239Z" fill="#F6AE2D"/>
<path fill-rule="evenodd" clip-rule="evenodd" d="M352.559 40.473H401.767V1.72736H418.06V40.473H474.827C477.344 36.4343 481.826 33.7459 486.935 33.7459C494.809 33.7459 501.194 40.128 501.194 47.9995C501.194 55.8709 494.809 62.2533 486.935 62.2533C481.518 62.2533 476.808 59.2337 474.394 54.7861H418.06V94.2715H401.767V54.7861H352.559H342.767V94.2715H326.475V1.72736H342.767V40.473H352.559ZM486.935 55.4239C491.037 55.4239 494.361 52.0996 494.361 47.9995C494.361 43.8996 491.037 40.5762 486.935 40.5762C482.834 40.5762 479.509 43.8996 479.509 47.9995C479.509 52.0996 482.834 55.4239 486.935 55.4239Z" fill="#F6AE2D"/>
<path fill-rule="evenodd" clip-rule="evenodd" d="M606.663 1.72736H624.313L591.806 41.1029L625.672 94.2715H607.034L581.288 53.8423L547.91 94.2715H533.345V1.72736H549.638V71.4543L606.663 1.72736Z" fill="white"/>
</g>
<defs>
<clipPath id="clip0_186_459">
<rect width="1052" height="96" fill="white" transform="matrix(1 0 0 -1 0 96)"/>
</clipPath>
</defs>
</svg>
